inDegrees=yes
name=ik_S44_A04_T01
DataType=double
version=3
OpenSimVersion=4.3-2021-08-27-4bc7ad9
endheader
time	pelvis_tilt	pelvis_list	pelvis_rotation	pelvis_tx	pelvis_ty	pelvis_tz	hip_flexion_r	hip_adduction_r	hip_rotation_r	knee_angle_r	knee_angle_r_beta	ankle_angle_r	subtalar_angle_r	mtp_angle_r	hip_flexion_l	hip_adduction_l	hip_rotation_l	knee_angle_l	knee_angle_l_beta	ankle_angle_l	subtalar_angle_l	mtp_angle_l	lumbar_extension	lumbar_bending	lumbar_rotation	arm_flex_r	arm_add_r	arm_rot_r	elbow_flex_r	pro_sup_r	wrist_flex_r	wrist_dev_r	arm_flex_l	arm_add_l	arm_rot_l	elbow_flex_l	pro_sup_l	wrist_flex_l	wrist_dev_l
21.13999999999964	13.86679844266328	7.066420744216786	39.00626125069164	0	0.9399999999999999	0	46.34300440033775	10.33130657865109	-22.71966874111552	70.5340218395024	1.231050915772904	0	0	0	51.54022855784785	3.221586439273875	-13.55470991880491	77.2954581608151	1.349060241743744	0	0	0	0	0	0	32.22846615480272	-32.22846615480272	4.497213174858778	78.77675226327771	85.50278707694982	0	0	32.22846615480272	-32.22846615480272	4.497213174858778	78.77675226327771	85.50278707685567	0	0
21.15999999999964	14.49048275044712	7.518500376117412	39.01574208290541	0	0.9399999999999999	0	45.62045824360263	10.34063670973933	-22.78086674086482	70.56526601089297	1.231596229435727	0	0	0	50.81891404506707	3.243566401233195	-13.52915300534038	77.34768639295362	1.349971796357057	0	0	0	0	0	0	32.22938532858615	-32.22938532858615	4.497284133037018	78.77763408248883	85.50271611877506	0	0	32.22938532858615	-32.22938532858615	4.497284133037018	78.77763408248883	85.50271611868095	0	0
21.17999999999964	14.64890957741889	7.604578822680633	38.98929880555795	0	0.9399999999999999	0	45.46278759412752	10.36622807108294	-22.65247656247867	70.50060409009473	1.230467666017134	0	0	0	50.7164851377043	3.147092400954633	-13.5778939392027	77.3606726438024	1.350198449191858	0	0	0	0	0	0	32.23059609937211	-32.23059609937211	4.497379206904164	78.77881584650235	85.50262104491262	0	0	32.23059609937211	-32.23059609937211	4.497379206904164	78.77881584650235	85.50262104481851	0	0
21.19999999999964	14.46855753506861	7.407287930373937	39.03938902237581	0	0.9399999999999999	0	45.73004954782287	10.36285643365255	-22.51891772985838	70.41031545564296	1.228891832068821	0	0	0	51.11865505138874	3.088673601335816	-13.54977364620751	77.38708513952204	1.350659434205835	0	0	0	0	0	0	32.23140112026993	-32.23140112026993	4.497441636400907	78.77959171971474	85.50255861541895	0	0	32.23140112026993	-32.23140112026993	4.497441636400907	78.77959171971474	85.50255861532486	0	0
21.21999999999964	14.67282266194369	7.487192166269733	38.98385423676709	0	0.9399999999999999	0	45.56948161193754	10.51274409170007	-22.38945255788882	70.34437299537197	1.227740919020227	0	0	0	51.09177648491382	2.981393816319272	-13.4108666267105	77.53684922877353	1.353273310664524	0	0	0	0	0	0	32.23269924874126	-32.23269924874126	4.497543268134887	78.78085494885021	85.50245698369	0	0	32.23269924874126	-32.23269924874126	4.497543268134887	78.78085494885021	85.50245698359595	0	0
21.23999999999964	15.46523756429229	7.990485216100524	38.82399094679207	0	0.9399999999999999	0	44.71781530556269	10.81379640420461	-22.32645578804675	70.44283004537591	1.229459318714596	0	0	0	50.29436733699035	2.804590896484612	-13.19911923269453	77.68978970961557	1.355942625614801	0	0	0	0	0	0	32.23376868374825	-32.23376868374825	4.497626096477328	78.78188432081957	85.5023741553517	0	0	32.23376868374825	-32.23376868374825	4.497626096477328	78.78188432081957	85.50237415525767	0	0
21.25999999999964	15.74769303471907	8.185934509520843	38.8797424188259	0	0.9399999999999999	0	44.42173121128565	11.01022242606575	-22.25220270583385	70.42280661052926	1.229109843848964	0	0	0	49.96113444765484	2.837969112161212	-13.1111639203041	77.68309334737228	1.355825752045749	0	0	0	0	0	0	32.234743034411	-32.234743034411	4.497702410148146	78.78283286146966	85.50229784168459	0	0	32.234743034411	-32.234743034411	4.497702410148146	78.78283286146966	85.50229784159069	0	0
21.27999999999964	15.78141452889664	8.175673379720298	39.00869596246879	0	0.9399999999999999	0	44.44354524497022	10.95728603458508	-22.06298008949006	70.40995282593558	1.228885502986462	0	0	0	50.05937923737969	2.946774925702992	-12.86109239966743	77.69139052427757	1.355970565101367	0	0	0	0	0	0	32.23510336971263	-32.23510336971263	4.497730110623012	78.78317708334576	85.50227014121111	0	0	32.23510336971263	-32.23510336971263	4.497730110623012	78.78317708334576	85.50227014111719	0	0
21.29999999999963	16.09393604523222	8.330332391336094	38.95339995056518	0	0.9399999999999999	0	44.12679527707096	10.97336292556166	-22.0936078040085	70.35306675510182	1.22789265375189	0	0	0	49.85528810831953	2.939465808125279	-12.71707326550462	77.78038945047886	1.357523889394319	0	0	0	0	0	0	32.23601321670718	-32.23601321670718	4.497800773229423	78.78405529064219	85.50219947860818	0	0	32.23601321670718	-32.23601321670718	4.497800773229423	78.78405529064219	85.50219947851429	0	0
21.31999999999963	16.61936585416458	8.659938575722304	38.74505569708882	0	0.9399999999999999	0	43.55036878146954	11.06721308322579	-21.87918081649997	70.25433612250966	1.22616947914058	0	0	0	49.38776043103689	2.787448988527224	-12.56987296104044	77.87729947194683	1.359215288347114	0	0	0	0	0	0	32.23716143136078	-32.23716143136078	4.497889887807051	78.78516281195054	85.50211036403493	0	0	32.23716143136078	-32.23716143136078	4.497889887807051	78.78516281195054	85.50211036394107	0	0
21.33999999999963	18.07194171470248	9.620146042038817	38.22566418294976	0	0.9399999999999999	0	41.94181786431763	11.33855166297644	-21.71582605931488	70.31316726453038	1.22719627627155	0	0	0	47.84571159638559	2.517427090393758	-12.51071312333748	78.00741984024627	1.361486317197846	0	0	0	0	0	0	32.23806692169581	-32.23806692169581	4.497959525662565	78.78602817447488	85.50204072618286	0	0	32.23806692169581	-32.23806692169581	4.497959525662565	78.78602817447488	85.50204072608902	0	0
21.35999999999963	18.94827492501479	10.24889197621504	37.8220397432374	0	0.9399999999999999	0	40.93493677809943	11.52863473824248	-21.63432069465703	70.23187379986952	1.225777437652864	0	0	0	46.85355502580661	2.239528322951281	-12.6651682467914	77.933285971354	1.360192437098434	0	0	0	0	0	0	32.23979365288976	-32.23979365288976	4.498093823137427	78.78769727206814	85.50190642871463	0	0	32.23979365288976	-32.23979365288976	4.498093823137427	78.78769727206814	85.5019064286208	0	0
21.37999999999963	18.75378393938271	10.17715326984691	37.81215456307348	0	0.9399999999999999	0	41.22707170663102	11.41748263242535	-21.57231743175755	70.12018857192665	1.223828162699421	0	0	0	47.1257488364451	2.140513362173564	-12.78087143870555	77.83948137956877	1.358555238118293	0	0	0	0	0	0	32.24079604888296	-32.24079604888296	4.498168897892672	78.78862987785976	85.50183135396298	0	0	32.24079604888296	-32.24079604888296	4.498168897892672	78.78862987785976	85.50183135386919	0	0
21.39999999999963	18.34317146240388	9.969791572312504	37.95083055942019	0	0.9399999999999999	0	41.79464387368095	11.18111745632427	-21.48900437891218	70.0553398802349	1.222696339513789	0	0	0	47.67632897387337	2.126152236897387	-12.88929744189875	77.76737926631097	1.357296818844298	0	0	0	0	0	0	32.24175421635736	-32.24175421635736	4.49824212433917	78.78953975813634	85.50175812752015	0	0	32.24175421635736	-32.24175421635736	4.49824212433917	78.78953975813634	85.50175812742636	0	0
21.41999999999963	18.38885913385652	9.998508683211851	37.90776798260616	0	0.9399999999999999	0	41.87443942316792	11.12528068276561	-21.50613742141815	70.02026165582025	1.222084109002	0	0	0	47.64752982377343	2.094885204911626	-12.91931519046832	77.74794228219534	1.356957579474823	0	0	0	0	0	0	32.24205446862034	-32.24205446862034	4.498265199356198	78.78982649866344	85.50173505250426	0	0	32.24205446862034	-32.24205446862034	4.498265199356198	78.78982649866344	85.50173505241047	0	0
21.43999999999963	20.89593581240702	11.59436272146906	37.12576365482162	0	0.9399999999999999	0	39.13313212555061	11.49978223752309	-21.40030747068096	70.24439295686075	1.225995938161935	0	0	0	44.92101975992598	1.612325061192081	-13.01787268193978	77.83683422197959	1.358509036502543	0	0	0	0	0	0	32.24600093329997	-32.24600093329997	4.498573210973556	78.793654708242	85.50142704090209	0	0	32.24600093329997	-32.24600093329997	4.498573210973556	78.793654708242	85.50142704080848	0	0
21.45999999999963	21.59158675225269	11.94704317729124	36.80136060741797	0	0.9399999999999999	0	38.56395443312991	11.68675750532225	-21.64564661077647	70.38839454743307	1.228509240045531	0	0	0	44.17347912319801	1.428550089429872	-13.07236402298436	77.82008719862263	1.358216745805055	0	0	0	0	0	0	32.24684189023098	-32.24684189023098	4.49863827382464	78.79446327331526	85.50136197805426	0	0	32.24684189023098	-32.24684189023098	4.49863827382464	78.79446327331526	85.50136197796066	0	0
21.47999999999963	21.17543342321365	11.66999216028112	36.91121182369299	0	0.9399999999999999	0	39.02030211388541	11.5025042950751	-21.70946952123382	70.09718686406902	1.223426707163723	0	0	0	44.91349868686379	1.178071129440331	-13.16295305575153	77.80322270061306	1.357922404788092	0	0	0	0	0	0	32.24956805912188	-32.24956805912188	4.498848892512585	78.79708065574376	85.50115135937666	0	0	32.24956805912188	-32.24956805912188	4.498848892512585	78.79708065574376	85.5011513592831	0	0
21.49999999999963	20.50914691577061	11.30031292913688	37.14910684795672	0	0.9399999999999999	0	39.85074340602742	11.23592944093395	-21.73156665589756	70.08404340337171	1.223197310499449	0	0	0	45.76164527177703	1.091173124563613	-13.47705796745721	77.77173996409827	1.357372927378371	0	0	0	0	0	0	32.25046355384473	-32.25046355384473	4.498918023965458	78.79793975619853	85.50108222792717	0	0	32.25046355384473	-32.25046355384473	4.498918023965458	78.79793975619853	85.50108222783361	0	0
21.51999999999963	20.4487790937223	11.30166888073372	37.1806057994975	0	0.9399999999999999	0	39.8888584535024	11.10114693533993	-21.75515618659697	70.00074704111705	1.221743514723171	0	0	0	45.90560129768389	1.026841385266837	-13.63234224491363	77.84839455627142	1.358710802398566	0	0	0	0	0	0	32.25181080953352	-32.25181080953352	4.499023087942709	78.79924555744945	85.50097716395511	0	0	32.25181080953352	-32.25181080953352	4.499023087942709	78.79924555744945	85.50097716386155	0	0
21.53999999999963	21.43946488703303	12.03950537849683	36.96967829832356	0	0.9399999999999999	0	38.96980234358053	10.98201791693053	-21.77101314720773	70.32569812924895	1.227414981119011	0	0	0	44.797464032045	0.8563338060848922	-13.72518262323673	77.95842396728817	1.360631177894839	0	0	0	0	0	0	32.25293605988863	-32.25293605988863	4.499110184902553	78.80032795084384	85.50089006699957	0	0	32.25293605988863	-32.25293605988863	4.499110184902553	78.80032795084384	85.50089006690601	0	0
21.55999999999963	22.91100019930064	13.05145384515475	36.66737043717011	0	0.9399999999999999	0	37.37295199701431	10.91651759692095	-21.79889861663962	70.58746774563039	1.23198372280655	0	0	0	43.14933537636077	0.7242995430764594	-13.67364794256081	78.1054466528964	1.363197207833827	0	0	0	0	0	0	32.25395565873097	-32.25395565873097	4.499188450717543	78.80130049281679	85.50081180118845	0	0	32.25395565873097	-32.25395565873097	4.499188450717543	78.80130049281679	85.5008118010949	0	0
